<?xml version="1.0" encoding="UTF-8" standalone="no"?>
<svg
   xmlns:dc="http://purl.org/dc/elements/1.1/"
   xmlns:cc="http://creativecommons.org/ns#"
   xmlns:rdf="http://www.w3.org/1999/02/22-rdf-syntax-ns#"
   xmlns:svg="http://www.w3.org/2000/svg"
   xmlns="http://www.w3.org/2000/svg"
   id="svg8"
   version="1.1"
   viewBox="0 0 25.144676 18.044582"
   height="18.044582mm"
   width="25.144676mm">
  <defs
     id="defs2" />
  <metadata
     id="metadata5">
    <rdf:RDF>
      <cc:Work
         rdf:about="">
        <dc:format>image/svg+xml</dc:format>
        <dc:type
           rdf:resource="http://purl.org/dc/dcmitype/StillImage" />
        <dc:title></dc:title>
      </cc:Work>
    </rdf:RDF>
  </metadata>
  <style
     id="style790">
      .path{
         animation: draw 8s linear infinite;
      }

      .path2{
         animation-delay: 1s;
      }

      @keyframes draw{
         0%{
         }

         100%{
            stroke-dashoffset: 0;
            stroke-opacity: 1;
         }
      }

       @keyframes left{
         from{
            transform: rotate(0deg);
         }
         to{
            transform: rotate(-359deg);
         }
      }

      @keyframes right{
         from{
            transform: rotate(0deg);
         }
         to{
            transform: rotate(359deg);
         }
      }

      .cog1{
         transform-origin: 15% 15%;
      }

      .cog2{
      transform-origin: 24% 30.5%;
      }

      .cog3{
         transform-origin: 16% 48%;
      }

      .spinLeft{
         animation: left 2s linear infinite;
      }

      .spinRight{
         animation: right 2s linear infinite;
      }
   </style>
  <defs
     id="defs797">
    <linearGradient
       y2="0%"
       x2="100%"
       y1="0%"
       x1="0%"
       id="linear">
      <stop
         id="stop792"
         stop-color="#148BB1"
         offset="0%" />
      <stop
         id="stop794"
         stop-color="#DBE2E8"
         offset="100%" />
    </linearGradient>
  </defs>
  <g
     transform="translate(-0.22330646,-0.33026613)"
     id="layer1">
    <text
       id="text12"
       y="18.17783"
       x="-0.024806853"
       style="font-style:normal;font-variant:normal;font-weight:normal;font-stretch:normal;font-size:25.39999962px;line-height:1.25;font-family:Subway;-inkscape-font-specification:Subway;font-variant-ligatures:normal;font-variant-caps:normal;font-variant-numeric:normal;font-feature-settings:normal;text-align:start;letter-spacing:0px;word-spacing:0px;writing-mode:lr-tb;text-anchor:start;fill:none;fill-opacity:1;stroke:#2b00c0;stroke-width:0.2;stroke-miterlimit:4;stroke-dasharray:none;stroke-opacity:1"
       xml:space="preserve"><tspan
         style="fill:white;stroke:#011936;stroke-width:0.4;stroke-miterlimit:4;stroke-dasharray:none;stroke-opacity:1"
         y="18.17783"
         x="-0.024806853"
         id="tspan10">IL</tspan></text>
    <g class="cog1 spinLeft"
       id="g949">
      <path
         id="path4537-17-3-8-8-8-3-6"
         d="M 4.0239366,4.0837889 4.3141764,4.4389648 4.7912594,4.2328123 4.7005394,3.7704617 C 4.8290312,3.6826939 4.9456005,3.585186 5.0085572,3.4614887"
         style="fill:none;stroke:#000000;stroke-width:0.2;stroke-linecap:butt;stroke-linejoin:miter;stroke-miterlimit:4;stroke-dasharray:none;stroke-opacity:1" />
      <circle
         r="0.77700001"
         transform="matrix(-0.91588427,0.4014424,-0.40581457,-0.91395543,0,0)"
         cy="-3.9507143"
         cx="-2.3907757"
         id="path4638-7-3-2-4-8"
         style="fill:none;stroke:#000000;stroke-width:0.0949581;stroke-miterlimit:4;stroke-dasharray:none;stroke-opacity:1" />
      <path
         id="path4537-17-9-0-0-4-6"
         d="m 3.5522727,1.1968126 -0.288212,-0.35679519 -0.478237,0.20349549 0.08809,0.462857 C 2.7449276,1.5934213 2.6278084,1.6902798 2.5641507,1.8136253"
         style="fill:none;stroke:#000000;stroke-width:0.2;stroke-linecap:butt;stroke-linejoin:miter;stroke-miterlimit:4;stroke-dasharray:none;stroke-opacity:1" />
      <path
         id="path4537-1-0-4-6-4-3-7"
         d="M 2.6077688,1.7843721 2.1100081,1.7546271 1.912449,2.2317077 2.3032335,2.4992005 c -0.030501,0.1515219 -0.040861,0.2975746 0.00102,0.4294465"
         style="fill:none;stroke:#000000;stroke-width:0.2;stroke-linecap:butt;stroke-linejoin:miter;stroke-miterlimit:4;stroke-dasharray:none;stroke-opacity:1" />
      <path
         id="path4537-17-6-3-7-4-8-1"
         d="M 2.315193,2.8789604 1.9564947,3.1683968 2.1641866,3.6400166 2.6308945,3.5477056 c 0.088482,0.1268511 0.1867917,0.241846 0.3115897,0.3035733"
         style="fill:none;stroke:#000000;stroke-width:0.2;stroke-linecap:butt;stroke-linejoin:miter;stroke-miterlimit:4;stroke-dasharray:none;stroke-opacity:1" />
      <path
         id="path4537-1-0-3-2-6-5-8-4"
         d="M 2.9226299,3.8052962 2.8950169,4.298797 3.3774615,4.4893505 3.645536,4.0992565 c 0.1530696,0.028573 0.3005221,0.03725 0.43341,-0.00568"
         style="fill:none;stroke:#000000;stroke-width:0.2;stroke-linecap:butt;stroke-linejoin:miter;stroke-miterlimit:4;stroke-dasharray:none;stroke-opacity:1" />
      <path
         id="path4537-1-0-7-4-6-3-5-2"
         d="M 4.9653183,3.488514 5.4632485,3.5154821 5.6580975,3.0373153 5.2657928,2.7720109 c 0.02964,-0.1516865 0.039169,-0.2977925 -0.00346,-0.4294269"
         style="fill:none;stroke:#000000;stroke-width:0.2;stroke-linecap:butt;stroke-linejoin:miter;stroke-miterlimit:4;stroke-dasharray:none;stroke-opacity:1" />
      <path
         id="path4537-17-6-8-8-8-0-8-4"
         d="M 5.2410474,2.3877901 5.5981017,2.0963623 5.3877337,1.6259148 4.9215496,1.7208256 C 4.8323475,1.594472 4.7333838,1.4800291 4.6082349,1.4190001"
         style="fill:none;stroke:#000000;stroke-width:0.2;stroke-linecap:butt;stroke-linejoin:miter;stroke-miterlimit:4;stroke-dasharray:none;stroke-opacity:1" />
      <path
         id="path4537-1-0-3-0-0-5-0-9-6"
         d="M 4.6471541,1.4646428 4.6719632,0.97100431 4.1884355,0.78314777 3.9225768,1.174724 c -0.1532311,-0.027717 -0.300734,-0.035573 -0.4333781,0.0081"
         style="fill:none;stroke:#000000;stroke-width:0.2;stroke-linecap:butt;stroke-linejoin:miter;stroke-miterlimit:4;stroke-dasharray:none;stroke-opacity:1" />
      <path
         id="path4857-8-7"
         d="M 3.2703391,0.95118939 C 3.3227071,1.010042 3.4413602,1.1593558 3.4659795,1.1973846 l 0.020885,0.032261 0.077945,-0.012424 c 0.086477,-0.013784 0.204647,-0.011582 0.3051386,0.00569 l 0.064359,0.01106 0.088221,-0.1293312 c 0.048522,-0.071132 0.108279,-0.15820639 0.1327944,-0.19349883 l 0.044573,-0.0641678 0.1919246,0.0758254 c 0.1055583,0.0417037 0.1969953,0.0791813 0.2031933,0.0832834 0.00871,0.00577 0.00867,0.056046 -2.384e-4,0.2217448 -0.00633,0.1178577 -0.01063,0.2197955 -0.00956,0.226528 0.00107,0.00673 0.020674,0.024077 0.043559,0.038543 0.059417,0.03756 0.1468088,0.1248233 0.2139425,0.2136268 0.056269,0.074431 0.058541,0.076334 0.082128,0.068765 0.013343,-0.00427 0.084553,-0.019527 0.1582469,-0.033878 0.073695,-0.014345 0.1651742,-0.033283 0.2032897,-0.042073 l 0.069301,-0.015979 0.080204,0.1791527 c 0.044112,0.098534 0.081793,0.1891225 0.083736,0.201308 0.00409,0.02564 0.00186,0.027802 -0.1828933,0.177091 l -0.122618,0.099085 0.013228,0.1109217 c 0.010142,0.085061 0.011031,0.1288405 0.00381,0.1877766 -0.00518,0.04227 -0.010999,0.095472 -0.012929,0.1182268 l -0.00351,0.041372 0.1867673,0.1303603 0.1867672,0.1303602 -0.047304,0.1205702 C 5.4640123,3.3756599 5.4286895,3.4570189 5.4198124,3.4585772 5.4152175,3.4593841 5.3116015,3.4546516 5.1895535,3.4480641 L 4.9676479,3.4360849 4.9210633,3.4980136 C 4.8710578,3.5644899 4.8110971,3.6213495 4.7062475,3.701719 l -0.065876,0.050495 0.015166,0.065616 c 0.00835,0.036087 0.028877,0.1370249 0.045636,0.2243021 l 0.03047,0.1586863 -0.1918341,0.082629 c -0.1055087,0.045446 -0.1957118,0.083247 -0.2004513,0.084003 -0.00971,0.00155 -0.083873,-0.082603 -0.1960644,-0.2224655 -0.041583,-0.051839 -0.07794,-0.094021 -0.080793,-0.093738 -0.1794576,0.017842 -0.2236911,0.018653 -0.3289361,0.00604 L 3.621011,4.0438015 3.4875785,4.2347225 3.3541458,4.4256436 3.1755168,4.3528355 C 3.0772708,4.3127913 2.9868094,4.274482 2.9744912,4.2677036 l -0.022396,-0.012323 0.010692,-0.221489 0.010692,-0.2214889 -0.067203,-0.048747 C 2.8274548,3.7064806 2.7756721,3.6532638 2.7056864,3.5575108 l -0.050847,-0.069568 -0.081867,0.017599 c -0.045029,0.00967 -0.1483535,0.030439 -0.2296142,0.046132 L 2.1956105,3.5802068 2.182436,3.5502318 C 2.175186,3.5337468 2.136652,3.4470375 2.096796,3.3575472 2.05694,3.2680572 2.023844,3.191783 2.023249,3.1880503 2.0226538,3.1843203 2.097401,3.1214213 2.189354,3.0482807 L 2.3565406,2.915298 2.3430833,2.83087 c -0.0152,-0.095358 -0.013775,-0.1645493 0.00571,-0.276961 l 0.013427,-0.077494 -0.073124,-0.0508 C 2.0960351,2.2914968 1.9848698,2.2117836 1.9842939,2.207053 1.9839457,2.204193 2.0182909,2.11721 2.0606159,2.01376 2.1355259,1.8306665 2.1383119,1.8254966 2.165458,1.8191701 c 0.015338,-0.00357 0.1210168,-0.00134 0.2348421,0.00496 l 0.2069548,0.011456 0.00972,-0.023302 C 2.6379869,1.7619171 2.7477243,1.6542931 2.861095,1.5728625 l 0.0625,-0.044891 -0.019092,-0.090763 C 2.894001,1.3872891 2.87349,1.2854498 2.858919,1.2108996 l -0.02649,-0.1355464 0.02983,-0.013326 c 0.073642,-0.032896 0.352515,-0.14894123 0.3614639,-0.15041186 0.00547,-8.9749e-4 0.026449,0.0169099 0.046616,0.0395737 z M 3.5903872,1.857768 c -0.2569921,0.069478 -0.464244,0.2477843 -0.5622096,0.4836904 -0.062866,0.1513847 -0.075238,0.2708687 -0.04663,0.4503461 0.02795,0.1753522 0.086718,0.2968701 0.2017674,0.4172099 0.1358008,0.142045 0.3166092,0.2333702 0.5091129,0.2571495 0.081978,0.010127 0.2880873,-0.01358 0.3725201,-0.042847 C 4.4571444,3.2873727 4.6882748,2.8845001 4.604269,2.4832509 4.5494096,2.2212231 4.3807951,2.0126891 4.1364565,1.9046881 3.9926315,1.8411156 3.8620687,1.8220278 3.6750257,1.837229 c -0.00682,5.511e-4 -0.044909,0.00978 -0.084639,0.020537 z"
         style="fill:#95d4df;fill-opacity:1;stroke:#000000;stroke-width:0.00203125;stroke-miterlimit:4;stroke-dasharray:none;stroke-opacity:1" />
    </g>
    <g class="cog2 spinRight"
       id="g971">
      <path
         id="path4537-17-3-8-8-8-3-6-0"
         d="M 6.3031306,6.9976303 6.5933704,7.3528062 7.0704534,7.1466537 6.9797334,6.6843031 C 7.1082252,6.5965353 7.2247945,6.4990274 7.2877512,6.3753301"
         style="fill:none;stroke:#000000;stroke-width:0.2;stroke-linecap:butt;stroke-linejoin:miter;stroke-miterlimit:4;stroke-dasharray:none;stroke-opacity:1" />
      <circle
         r="0.77700001"
         transform="matrix(-0.91588427,0.4014424,-0.40581457,-0.91395543,0,0)"
         cy="-7.534462"
         cx="-3.2913885"
         id="path4638-7-3-2-4-8-6"
         style="fill:none;stroke:#000000;stroke-width:0.0949581;stroke-miterlimit:4;stroke-dasharray:none;stroke-opacity:1" />
      <path
         id="path4537-17-9-0-0-4-6-5"
         d="m 5.8314667,4.110654 -0.288212,-0.3567952 -0.478237,0.2034956 0.08809,0.462857 C 5.0241216,4.5072628 4.9070024,4.6041213 4.8433447,4.7274667"
         style="fill:none;stroke:#000000;stroke-width:0.2;stroke-linecap:butt;stroke-linejoin:miter;stroke-miterlimit:4;stroke-dasharray:none;stroke-opacity:1" />
      <path
         id="path4537-1-0-4-6-4-3-7-6"
         d="M 4.8869628,4.6982135 4.3892021,4.6684685 4.191643,5.1455491 4.5824275,5.4130419 c -0.030501,0.1515219 -0.040861,0.2975746 0.00102,0.4294465"
         style="fill:none;stroke:#000000;stroke-width:0.2;stroke-linecap:butt;stroke-linejoin:miter;stroke-miterlimit:4;stroke-dasharray:none;stroke-opacity:1" />
      <path
         id="path4537-17-6-3-7-4-8-1-6"
         d="M 4.594387,5.7928018 4.2356887,6.0822382 4.4433806,6.553858 4.9100885,6.461547 c 0.088482,0.1268511 0.1867917,0.241846 0.3115897,0.3035733"
         style="fill:none;stroke:#000000;stroke-width:0.2;stroke-linecap:butt;stroke-linejoin:miter;stroke-miterlimit:4;stroke-dasharray:none;stroke-opacity:1" />
      <path
         id="path4537-1-0-3-2-6-5-8-4-1"
         d="M 5.2018239,6.7191377 5.1742109,7.2126384 5.6566555,7.4031919 5.92473,7.0130979 c 0.1530696,0.028573 0.3005221,0.03725 0.43341,-0.00568"
         style="fill:none;stroke:#000000;stroke-width:0.2;stroke-linecap:butt;stroke-linejoin:miter;stroke-miterlimit:4;stroke-dasharray:none;stroke-opacity:1" />
      <path
         id="path4537-1-0-7-4-6-3-5-2-0"
         d="M 7.2445123,6.4023554 7.7424425,6.4293236 7.9372915,5.9511567 7.5449868,5.6858523 c 0.02964,-0.1516865 0.039169,-0.2977924 -0.00346,-0.4294269"
         style="fill:none;stroke:#000000;stroke-width:0.2;stroke-linecap:butt;stroke-linejoin:miter;stroke-miterlimit:4;stroke-dasharray:none;stroke-opacity:1" />
      <path
         id="path4537-17-6-8-8-8-0-8-4-4"
         d="M 7.5202414,5.3016315 7.8772957,5.0102037 7.6669277,4.5397562 7.2007436,4.634667 C 7.1115415,4.5083134 7.0125778,4.3938705 6.8874289,4.3328415"
         style="fill:none;stroke:#000000;stroke-width:0.2;stroke-linecap:butt;stroke-linejoin:miter;stroke-miterlimit:4;stroke-dasharray:none;stroke-opacity:1" />
      <path
         id="path4537-1-0-3-0-0-5-0-9-6-7"
         d="M 6.9263481,4.3784841 6.9511572,3.8848457 6.4676295,3.6969893 6.2017708,4.0885654 c -0.1532311,-0.027717 -0.300734,-0.035572 -0.4333781,0.0081"
         style="fill:none;stroke:#000000;stroke-width:0.2;stroke-linecap:butt;stroke-linejoin:miter;stroke-miterlimit:4;stroke-dasharray:none;stroke-opacity:1" />
      <path
         id="path4857-8-7-7"
         d="m 5.5495331,3.8650309 c 0.052368,0.058853 0.1710211,0.2081663 0.1956404,0.2461951 l 0.020885,0.032261 0.077945,-0.012424 c 0.086477,-0.013784 0.204647,-0.011582 0.3051386,0.00569 l 0.064359,0.01106 0.088221,-0.1293312 C 6.3502441,3.9473498 6.4100011,3.8602754 6.4345165,3.824983 L 6.4790895,3.760815 6.6710141,3.83664 c 0.1055583,0.041704 0.1969953,0.079181 0.2031933,0.083283 0.00871,0.00577 0.00867,0.056046 -2.384e-4,0.2217448 -0.00633,0.1178577 -0.01063,0.2197954 -0.00956,0.2265279 0.00107,0.00673 0.020674,0.024077 0.043559,0.038543 0.059417,0.03756 0.1468088,0.1248232 0.2139425,0.2136268 0.056269,0.074431 0.058541,0.076334 0.082128,0.068765 0.013343,-0.00427 0.084553,-0.019527 0.1582469,-0.033878 0.073695,-0.014345 0.1651742,-0.033283 0.2032897,-0.042073 l 0.069301,-0.015979 0.080204,0.1791527 c 0.044112,0.098534 0.081793,0.1891225 0.083736,0.201308 0.00409,0.02564 0.00186,0.027802 -0.1828933,0.177091 l -0.122618,0.099085 0.013228,0.1109217 c 0.010142,0.085061 0.011031,0.1288405 0.00381,0.1877766 -0.00518,0.04227 -0.010999,0.095472 -0.012929,0.1182268 l -0.00351,0.041372 0.1867673,0.1303603 0.1867672,0.1303602 -0.047304,0.1205702 C 7.7432063,6.2895013 7.7078835,6.3708603 7.6990064,6.3724186 7.6944115,6.3732255 7.5907955,6.368493 7.4687475,6.3619056 L 7.2468419,6.3499263 7.2002573,6.411855 C 7.1502518,6.4783314 7.0902911,6.5351909 6.9854415,6.6155604 l -0.065876,0.050495 0.015166,0.065616 c 0.00835,0.036087 0.028877,0.1370249 0.045636,0.2243021 l 0.03047,0.1586863 -0.1918341,0.082629 c -0.1055087,0.045446 -0.1957118,0.083247 -0.2004513,0.084003 -0.00971,0.00155 -0.083873,-0.082603 -0.1960644,-0.2224654 -0.041583,-0.051839 -0.07794,-0.094021 -0.080793,-0.093738 -0.1794576,0.017842 -0.2236911,0.018653 -0.3289361,0.00604 L 5.900205,6.957643 5.7667725,7.1485639 5.6333398,7.3394851 5.4547108,7.2666769 C 5.3564648,7.2266327 5.2660034,7.1883235 5.2536852,7.181545 L 5.2312892,7.169222 5.2419812,6.947733 5.2526732,6.7262441 5.1854702,6.6774971 C 5.1066488,6.6203221 5.0548661,6.5671052 4.9848804,6.4713522 l -0.050847,-0.069568 -0.081867,0.017599 c -0.045029,0.00967 -0.1483535,0.030439 -0.2296142,0.046132 l -0.1477477,0.028533 -0.013174,-0.029975 c -0.00725,-0.016485 -0.045784,-0.1031943 -0.08564,-0.1926846 -0.039856,-0.08949 -0.072952,-0.1657642 -0.073547,-0.1694969 -5.952e-4,-0.00373 0.074152,-0.066629 0.166105,-0.1397696 L 4.6357346,5.8291394 4.6222773,5.7447114 c -0.0152,-0.095358 -0.013775,-0.1645493 0.00571,-0.276961 l 0.013427,-0.077494 -0.073124,-0.0508 C 4.3752291,5.2053382 4.2640638,5.125625 4.2634879,5.1208944 c -3.482e-4,-0.00286 0.033997,-0.089843 0.076322,-0.193293 0.07491,-0.1830935 0.077696,-0.1882634 0.1048421,-0.1945899 0.015338,-0.00357 0.1210168,-0.00134 0.2348421,0.00496 l 0.2069548,0.011456 0.00972,-0.023302 C 4.9171809,4.6757585 5.0269183,4.5681345 5.140289,4.4867038 l 0.0625,-0.044891 -0.019092,-0.090763 C 5.173195,4.3011305 5.152684,4.1992912 5.138113,4.1247409 l -0.02649,-0.1355462 0.02983,-0.013326 c 0.073642,-0.032896 0.352515,-0.1489411 0.3614639,-0.1504119 0.00547,-8.975e-4 0.026449,0.01691 0.046616,0.039574 z m 0.3200481,0.9065785 c -0.2569921,0.069478 -0.464244,0.2477843 -0.5622096,0.4836904 -0.062866,0.1513847 -0.075238,0.2708688 -0.04663,0.4503461 0.02795,0.1753522 0.086718,0.2968701 0.2017674,0.4172099 0.1358008,0.142045 0.3166092,0.2333702 0.5091129,0.2571495 0.081978,0.010127 0.2880873,-0.01358 0.3725201,-0.042847 C 6.7363384,6.2012141 6.9674688,5.7983415 6.883463,5.3970924 6.8286036,5.1350645 6.6599891,4.9265305 6.4156505,4.8185295 6.2718255,4.754957 6.1412627,4.7358693 5.9542197,4.7510704 c -0.00682,5.512e-4 -0.044909,0.00978 -0.084639,0.020537 z"
         style="fill:#95d4df;fill-opacity:1;stroke:#000000;stroke-width:0.00203125;stroke-miterlimit:4;stroke-dasharray:none;stroke-opacity:1" />
    </g>
    <g class="cog3 spinLeft"
       id="g1017"> 
      <path 
         id="path4537-17-3-8-8-8-3-6-9"
         d="m 4.255791,10.126446 0.2902398,0.355176 0.477083,-0.206153 -0.09072,-0.4623504 C 5.0608856,9.7253508 5.1774549,9.6278429 5.2404116,9.5041456"
         style="fill:none;stroke:#000000;stroke-width:0.2;stroke-linecap:butt;stroke-linejoin:miter;stroke-miterlimit:4;stroke-dasharray:none;stroke-opacity:1" />
      <circle
         r="0.77700001"
         transform="matrix(-0.91588427,0.4014424,-0.40581457,-0.91395543,0,0)"
         cy="-9.578229"
         cx="-0.15045659"
         id="path4638-7-3-2-4-8-4"
         style="fill:none;stroke:#000000;stroke-width:0.0949581;stroke-miterlimit:4;stroke-dasharray:none;stroke-opacity:1" />
      <path
         id="path4537-17-9-0-0-4-6-9"
         d="m 3.7841271,7.2394695 -0.288212,-0.3567952 -0.478237,0.2034955 0.08809,0.462857 C 2.976782,7.6360782 2.8596628,7.7329367 2.7960051,7.8562822"
         style="fill:none;stroke:#000000;stroke-width:0.2;stroke-linecap:butt;stroke-linejoin:miter;stroke-miterlimit:4;stroke-dasharray:none;stroke-opacity:1" />
      <path
         id="path4537-1-0-4-6-4-3-7-3"
         d="M 2.8396233,7.827029 2.3418626,7.797284 2.1443035,8.2743646 2.535088,8.5418574 C 2.504587,8.6933793 2.494227,8.839432 2.536108,8.9713039"
         style="fill:none;stroke:#000000;stroke-width:0.2;stroke-linecap:butt;stroke-linejoin:miter;stroke-miterlimit:4;stroke-dasharray:none;stroke-opacity:1" />
      <path
         id="path4537-17-6-3-7-4-8-1-1"
         d="M 2.5470475,8.9216173 2.1883492,9.2110537 2.3960411,9.6826735 2.862749,9.5903625 c 0.088482,0.1268511 0.1867916,0.241846 0.3115896,0.3035733"
         style="fill:none;stroke:#000000;stroke-width:0.2;stroke-linecap:butt;stroke-linejoin:miter;stroke-miterlimit:4;stroke-dasharray:none;stroke-opacity:1" />
      <path
         id="path4537-1-0-3-2-6-5-8-4-3"
         d="m 3.1544843,9.8479531 -0.027613,0.4935009 0.4824446,0.190553 0.2680745,-0.390094 c 0.1530696,0.02857 0.3005221,0.03725 0.43341,-0.0057"
         style="fill:none;stroke:#000000;stroke-width:0.2;stroke-linecap:butt;stroke-linejoin:miter;stroke-miterlimit:4;stroke-dasharray:none;stroke-opacity:1" />
      <path
         id="path4537-1-0-7-4-6-3-5-2-5"
         d="M 5.1971727,9.5311709 5.6951029,9.558139 5.8899519,9.0799722 5.4976472,8.8146678 c 0.02964,-0.1516865 0.039169,-0.2977925 -0.00346,-0.4294269"
         style="fill:none;stroke:#000000;stroke-width:0.2;stroke-linecap:butt;stroke-linejoin:miter;stroke-miterlimit:4;stroke-dasharray:none;stroke-opacity:1" />
      <path
         id="path4537-17-6-8-8-8-0-8-4-9"
         d="M 5.4729018,8.430447 5.8299561,8.1390192 5.6195881,7.6685716 5.153404,7.7634825 C 5.0642019,7.6371289 4.9652382,7.522686 4.8400893,7.461657"
         style="fill:none;stroke:#000000;stroke-width:0.2;stroke-linecap:butt;stroke-linejoin:miter;stroke-miterlimit:4;stroke-dasharray:none;stroke-opacity:1" />
      <path
         id="path4537-1-0-3-0-0-5-0-9-6-9"
         d="M 4.8790085,7.5072996 4.9038176,7.0136612 4.4202899,6.8258047 4.1544312,7.2173809 c -0.1532311,-0.027717 -0.300734,-0.035573 -0.4333781,0.0081"
         style="fill:none;stroke:#000000;stroke-width:0.2;stroke-linecap:butt;stroke-linejoin:miter;stroke-miterlimit:4;stroke-dasharray:none;stroke-opacity:1" />
      <path
         id="path4857-8-7-5"
         d="m 3.5021935,6.9938463 c 0.052368,0.058853 0.1710211,0.2081664 0.1956404,0.2461952 l 0.020885,0.032261 0.077945,-0.012424 c 0.086477,-0.013784 0.204647,-0.011582 0.3051386,0.00569 l 0.064359,0.01106 0.088221,-0.1293312 c 0.048522,-0.071132 0.108279,-0.1582064 0.1327944,-0.1934988 l 0.044573,-0.064168 0.1919246,0.075825 c 0.1055583,0.041704 0.1969953,0.079181 0.2031933,0.083283 0.00871,0.00577 0.00867,0.056046 -2.384e-4,0.2217448 -0.00633,0.1178577 -0.01063,0.2197954 -0.00956,0.2265279 0.00107,0.00673 0.020674,0.024077 0.043559,0.038543 0.059417,0.03756 0.1468088,0.1248232 0.2139425,0.2136268 0.056269,0.074431 0.058541,0.076334 0.082128,0.068765 C 5.1700419,7.813676 5.2412519,7.798419 5.3149458,7.784068 5.3886408,7.769723 5.48012,7.750785 5.5182355,7.741995 l 0.069301,-0.015979 0.080204,0.1791527 c 0.044112,0.098534 0.081793,0.1891225 0.083736,0.201308 0.00409,0.02564 0.00186,0.027802 -0.1828933,0.177091 l -0.122618,0.099085 0.013228,0.1109217 c 0.010142,0.085061 0.011031,0.1288405 0.00381,0.1877766 -0.00518,0.04227 -0.010999,0.095472 -0.012929,0.1182268 l -0.00351,0.041372 0.1867673,0.1303603 0.1867672,0.1303602 -0.047304,0.1205702 C 5.6958667,9.4183168 5.6605439,9.4996758 5.6516668,9.5012341 5.6470719,9.502041 5.5434559,9.4973085 5.4214079,9.490721 L 5.1995023,9.4787418 5.1529177,9.5406705 C 5.1029122,9.6071468 5.0429515,9.6640064 4.9381019,9.7443759 l -0.065876,0.050495 0.015166,0.065616 c 0.00835,0.036087 0.028877,0.1370249 0.045636,0.2243021 l 0.03047,0.158686 -0.1918341,0.08263 c -0.1055087,0.04545 -0.1957118,0.08325 -0.2004513,0.084 -0.00971,0.0015 -0.083873,-0.0826 -0.1960644,-0.222465 -0.041583,-0.05184 -0.07794,-0.09402 -0.080793,-0.09374 -0.1794576,0.01784 -0.2236911,0.01865 -0.3289361,0.006 L 3.8528654,10.086458 3.7194329,10.277379 3.5860002,10.4683 3.4073712,10.395492 c -0.098246,-0.04004 -0.1887074,-0.07835 -0.2010256,-0.08513 l -0.022396,-0.01232 0.010692,-0.221489 0.010692,-0.2214884 -0.067203,-0.048747 C 3.0593092,9.7491375 3.0075265,9.6959207 2.9375409,9.6001677 l -0.050847,-0.069568 -0.081867,0.017599 c -0.045029,0.00967 -0.1483535,0.030439 -0.2296142,0.046132 L 2.427465,9.6228637 2.4142905,9.5928887 c -0.00725,-0.016485 -0.045784,-0.1031943 -0.08564,-0.1926846 -0.039856,-0.08949 -0.072952,-0.1657642 -0.073547,-0.1694969 -5.952e-4,-0.00373 0.074152,-0.066629 0.166105,-0.1397696 L 2.5883951,8.9579549 2.5749378,8.8735269 c -0.0152,-0.095358 -0.013775,-0.1645493 0.00571,-0.276961 l 0.013427,-0.077494 -0.073124,-0.0508 C 2.3278896,8.3341537 2.2167243,8.2544405 2.2161484,8.2497099 c -3.482e-4,-0.00286 0.033997,-0.089843 0.076322,-0.193293 0.07491,-0.1830935 0.077696,-0.1882634 0.1048421,-0.1945899 0.015338,-0.00357 0.1210168,-0.00134 0.2348421,0.00496 l 0.2069548,0.011456 0.00972,-0.023302 C 2.8698414,7.804574 2.9795788,7.69695 3.0929494,7.6155193 l 0.0625,-0.044891 -0.019092,-0.090763 C 3.1258554,7.4299459 3.1053444,7.3281066 3.0907734,7.2535564 l -0.02649,-0.1355463 0.02983,-0.013326 c 0.073642,-0.032896 0.352515,-0.1489412 0.3614639,-0.1504119 0.00547,-8.975e-4 0.026449,0.01691 0.046616,0.039574 z M 3.8222416,7.9004249 C 3.5652495,7.9699029 3.3579976,8.1482092 3.260032,8.3841153 3.197166,8.5355 3.184794,8.654984 3.213402,8.8344614 3.241352,9.0098136 3.30012,9.1313315 3.4151694,9.2516713 3.5509702,9.3937163 3.7317786,9.4850415 3.9242823,9.5088208 4.0062603,9.5189478 4.2123696,9.4952408 4.2968024,9.4659738 4.6889988,9.3300296 4.9201292,8.927157 4.8361234,8.5259078 4.781264,8.26388 4.6126495,8.055346 4.3683109,7.947345 4.2244859,7.8837725 4.0939231,7.8646847 3.9068801,7.8798859 c -0.00682,5.511e-4 -0.044909,0.00978 -0.084639,0.020537 z"
         style="fill:#95d4df;fill-opacity:1;stroke:#000000;stroke-width:0.00203125;stroke-miterlimit:4;stroke-dasharray:none;stroke-opacity:1" />
    </g>
  </g>
  <rect
     y="5.182889"
     x="2.1001945"
     height="0.90537107"
     width="1.7115234"
     id="rect5070"
     style="fill:#95d4df;fill-opacity:1;stroke:#000000;stroke-width:0.1;stroke-miterlimit:4;stroke-dasharray:none;stroke-opacity:1" />
  <rect
     y="5.3780327"
     x="2.4771402"
     height="0.48818448"
     width="0.8652851"
     id="rect5122"
     style="fill:#0084df;fill-opacity:1;stroke:#000000;stroke-width:0.1;stroke-miterlimit:4;stroke-dasharray:none;stroke-opacity:1" />
  <rect
     y="4.0742583"
     x="13.529987"
     height="1.3505462"
     width="1.6662585"
     id="rect5183"
     style="fill:#4da4df;;fill-opacity:1;stroke:none;stroke-width:0.14384367;stroke-miterlimit:4;stroke-dasharray:none;stroke-opacity:1;paint-order:normal" />
  <g
     id="g5719"
     stroke-dashoffset="70"
     stroke-dasharray="1,34"
     stroke-opacity="1"
     stroke-linejoin="round"
     stroke-linecap="butt"
     fill-rule="evenodd"
     fill="none"
     stroke-width="0.5"
     stroke="url(#linear)"
     class="path path1">
    <path
       d="m 11.761266,1.1952227 1.81901,-0.00384 0.92223,0.7032442 0.0083,2.1927218"
       id="path5126" />
    <path
       d="m 12.39414,1.970682 h 1.058333 l 0.546707,0.4648549 0.0058,1.641552"
       id="path5126-5" />
    <path
       d="m 15.151594,4.3271273 h 1.322917 l 0.682129,-0.2397786 0.529166,-0.79375 v -1.5875"
       id="path5126-5-9" />
    <path
       d="m 15.039973,4.8810987 c 1.785333,0.00152 0.986181,0.00179 1.5875,0 l 0.79375,0.5291666 V 6.733182"
       id="path5126-5-1" />
    <path
       d="m 15.039973,4.0873487 6.13e-4,-1.3222709 0.26397,-0.5298125 0.79375,-0.2645833"
       id="path5126-5-9-6" />
    <path
       d="m 13.98164,5.4102653 v 0.79375 L 13.717056,6.733182 v 1.0583333"
       id="path5126-5-9-6-2" />
    <path
       d="m 14.510806,5.4102653 v 0.79375 L 14.246222,6.733182 v 1.0583334 l 0.264584,0.5291666 v 0.79375"
       id="path5126-5-9-6-2-1" />
    <path
       d="M 13.530025,5.1507955 13.18789,5.145682 v 1.5875"
       id="path5126-5-9-9" />
    <path
       d="m 13.543227,4.8796287 -0.884504,0.00147 V 5.939432 l -0.264583,0.79375"
       id="path5126-5-9-9-6" />
    <path
       d="m 15.039974,5.4102653 v 0.79375 L 14.77539,6.733182 15.56914,7.2623487 v 0.5291666"
       id="path5126-5-9-6-2-1-3" />
  </g>
  <rect
     transform="rotate(90.215092)"
     y="-15.363203"
     x="12.486216"
     height="1.3505462"
     width="1.6662585"
     id="rect5183-0"
     style="fill:#4da4df;;fill-opacity:1;stroke:none;stroke-width:0.14384367;stroke-miterlimit:4;stroke-dasharray:none;stroke-opacity:1;paint-order:normal" />
  <g
     id="g5719"
     stroke-dashoffset="92"
     stroke-dasharray="0,46,1,10,1,34"
     stroke-opacity="1"
     stroke-linejoin="round"
     stroke-linecap="butt"
     fill-rule="evenodd"
     fill="none"
     stroke-width="0.5"
     stroke="url(#linear)"
     class="path path2">
    <path
       d="m 17.950389,15.993599 v -2.116667 l -0.453095,-0.529258 -2.192738,9.1e-5"
       id="path5126-50" />
    <path
       d="m 17.417023,11.215656 -0.004,1.058325 -0.466904,0.54496 -1.641563,-3.42e-4"
       id="path5126-5-6" />
    <path
       d="m 14.510806,14.141515 v 2.38125 l 0.529167,0.79375 h 1.852083 0.79375"
       id="path5126-5-9-3" />
    <path
       d="m 14.246222,14.141515 c -0.0082,1.785314 5e-4,2.309095 0,2.910417 l 0.529166,0.79375 h 1.322917"
       id="path5126-5-1-0" />
    <path
       d="m 15.304556,13.876932 h 0.79375 v 0.529167 h 1.058333 v 0.79375 0.79375"
       id="path5126-5-9-6-3" />
    <path
       d="m 13.981639,13.347765 -0.793745,-0.003 -0.370595,0.50677"
       id="path5126-5-9-6-2-1-7" />
    <path
       d="m 14.246222,12.554015 v -0.264583 h -0.79375 L 12.658723,11.760265 12.39414,11.231099 V 9.6435987"
       id="path5126-5-9-9-9" />
    <path
       d="m 14.510806,12.554015 v -0.79375 H 13.981639 L 13.452473,11.495682 13.18789,11.231099 v -0.79375"
       id="path5126-5-9-9-6-9" />
    <path
       d="m 15.039972,12.554015 0.0029,-1.149083 1.055436,-0.440403 v -0.529167"
       id="path5126-5-9-9-6-0-3" />
    <path
       d="m 13.981639,13.876932 h -0.529167 l 0.425149,0.76835 -0.510577,0.268328 -0.003,0.728915"
       id="path5126-5-9-6-2-1-3-6" />
    <path
       d="m 15.039972,14.141515 v 2.38125 l 0.529167,0.79375 h 1.852083 0.79375"
       id="path5126-5-9-3-5" />
  </g>
  <g
     id="g904"
     stroke-linejoin="round"
     stroke-linecap="round"
     fill="none"
     stroke-width="0.2"
     stroke="#4da4df"
     class="paths-bg">
    <path
       d="m 11.761266,1.1952227 1.81901,-0.00384 0.92223,0.7032442 0.0083,2.1927218"
       id="path862" />
    <path
       d="m 12.39414,1.970682 h 1.058333 l 0.546707,0.4648549 0.0058,1.641552"
       id="path864" />
    <path
       d="m 15.151594,4.3271273 h 1.322917 l 0.682129,-0.2397786 0.529166,-0.79375 v -1.5875"
       id="path866" />
    <path
       d="m 15.039973,4.8810987 c 1.785333,0.00152 0.986181,0.00179 1.5875,0 l 0.79375,0.5291666 V 6.733182"
       id="path868" />
    <path
       d="m 15.039973,4.0873487 6.13e-4,-1.3222709 0.26397,-0.5298125 0.79375,-0.2645833"
       id="path870" />
    <path
       d="m 13.98164,5.4102653 v 0.79375 L 13.717056,6.733182 v 1.0583333"
       id="path872" />
    <path
       d="m 14.510806,5.4102653 v 0.79375 L 14.246222,6.733182 v 1.0583334 l 0.264584,0.5291666 v 0.79375"
       id="path874" />
    <path
       d="M 13.530025,5.1507955 13.18789,5.145682 v 1.5875"
       id="path876" />
    <path
       d="m 13.543227,4.8796287 -0.884504,0.00147 V 5.939432 l -0.264583,0.79375"
       id="path878" />
    <path
       d="m 15.039974,5.4102653 v 0.79375 L 14.77539,6.733182 15.56914,7.2623487 v 0.5291666"
       id="path880" />
    <path
       d="m 17.950389,15.993599 v -2.116667 l -0.453095,-0.529258 -2.192738,9.1e-5"
       id="path882" />
    <path
       d="m 17.417023,11.215656 -0.004,1.058325 -0.466904,0.54496 -1.641563,-3.42e-4"
       id="path884" />
    <path
       d="m 14.510806,14.141515 v 2.38125 l 0.529167,0.79375 h 1.852083 0.79375"
       id="path886" />
    <path
       d="m 14.246222,14.141515 c -0.0082,1.785314 5e-4,2.309095 0,2.910417 l 0.529166,0.79375 h 1.322917"
       id="path888" />
    <path
       d="m 15.304556,13.876932 h 0.79375 v 0.529167 h 1.058333 v 0.79375 0.79375"
       id="path890" />
    <path
       d="m 13.981639,13.347765 -0.793745,-0.003 -0.370595,0.50677"
       id="path892" />
    <path
       d="m 14.246222,12.554015 v -0.264583 h -0.79375 L 12.658723,11.760265 12.39414,11.231099 V 9.6435987"
       id="path894" />
    <path
       d="m 14.510806,12.554015 v -0.79375 H 13.981639 L 13.452473,11.495682 13.18789,11.231099 v -0.79375"
       id="path896" />
    <path
       d="m 15.039972,12.554015 0.0029,-1.149083 1.055436,-0.440403 v -0.529167"
       id="path898" />
    <path
       d="m 13.981639,13.876932 h -0.529167 l 0.425149,0.76835 -0.510577,0.268328 -0.003,0.728915"
       id="path900" />
    <path
       d="m 15.039972,14.141515 v 2.38125 l 0.529167,0.79375 h 1.852083 0.79375"
       id="path902" />
  </g>
  <circle
     r="0.26458332"
     cy="6.9977651"
     cx="17.421223"
     id="path5533"
     style="fill:none;fill-opacity:1;stroke:#000000;stroke-width:0.065;stroke-miterlimit:4;stroke-dasharray:none;stroke-opacity:1;paint-order:normal" />
  <circle
     r="0.26458332"
     cy="8.0560989"
     cx="15.569139"
     id="path5533-7"
     style="fill:none;fill-opacity:1;stroke:#000000;stroke-width:0.065;stroke-miterlimit:4;stroke-dasharray:none;stroke-opacity:1;paint-order:normal" />
  <circle
     r="0.26458332"
     cy="9.379015"
     cx="14.510806"
     id="path5533-4"
     style="fill:none;fill-opacity:1;stroke:#000000;stroke-width:0.065;stroke-miterlimit:4;stroke-dasharray:none;stroke-opacity:1;paint-order:normal" />
  <circle
     r="0.26458332"
     cy="8.0560989"
     cx="13.717056"
     id="path5533-6"
     style="fill:none;fill-opacity:1;stroke:#000000;stroke-width:0.065;stroke-miterlimit:4;stroke-dasharray:none;stroke-opacity:1;paint-order:normal" />
  <circle
     r="0.26458332"
     cy="6.9977655"
     cx="13.18789"
     id="path5533-2"
     style="fill:none;fill-opacity:1;stroke:#000000;stroke-width:0.065;stroke-miterlimit:4;stroke-dasharray:none;stroke-opacity:1;paint-order:normal" />
  <circle
     r="0.26458332"
     cy="6.9977655"
     cx="12.39414"
     id="path5533-2-7"
     style="fill:none;fill-opacity:1;stroke:#000000;stroke-width:0.065;stroke-miterlimit:4;stroke-dasharray:none;stroke-opacity:1;paint-order:normal" />
  <circle
     r="0.26458332"
     cy="1.4415153"
     cx="17.685806"
     id="path5533-2-1"
     style="fill:none;fill-opacity:1;stroke:#000000;stroke-width:0.065;stroke-miterlimit:4;stroke-dasharray:none;stroke-opacity:1;paint-order:normal" />
  <circle
     r="0.26458332"
     cy="1.970682"
     cx="16.36289"
     id="path5533-2-2"
     style="fill:none;fill-opacity:1;stroke:#000000;stroke-width:0.065;stroke-miterlimit:4;stroke-dasharray:none;stroke-opacity:1;paint-order:normal" />
  <circle
     r="0.26458332"
     cy="1.1952227"
     cx="11.496683"
     id="path5533-2-3"
     style="fill:none;fill-opacity:1;stroke:#000000;stroke-width:0.065;stroke-miterlimit:4;stroke-dasharray:none;stroke-opacity:1;paint-order:normal" />
  <circle
     r="0.26458332"
     cy="1.970682"
     cx="12.129557"
     id="path5533-2-5"
     style="fill:none;fill-opacity:1;stroke:#000000;stroke-width:0.065;stroke-miterlimit:4;stroke-dasharray:none;stroke-opacity:1;paint-order:normal" />
  <circle
     r="0.26458332"
     cy="10.951073"
     cx="17.417023"
     id="path5533-2-0"
     style="fill:none;fill-opacity:1;stroke:#000000;stroke-width:0.065;stroke-miterlimit:4;stroke-dasharray:none;stroke-opacity:1;paint-order:normal" />
  <circle
     r="0.26458332"
     cy="10.170778"
     cx="16.098309"
     id="path5533-2-30"
     style="fill:none;fill-opacity:1;stroke:#000000;stroke-width:0.065;stroke-miterlimit:4;stroke-dasharray:none;stroke-opacity:1;paint-order:normal" />
  <circle
     r="0.26458332"
     cy="10.172766"
     cx="13.18789"
     id="path5533-2-08"
     style="fill:none;fill-opacity:1;stroke:#000000;stroke-width:0.065;stroke-miterlimit:4;stroke-dasharray:none;stroke-opacity:1;paint-order:normal" />
  <circle
     r="0.26458332"
     cy="9.379015"
     cx="12.39414"
     id="path5533-2-14"
     style="fill:none;fill-opacity:1;stroke:#000000;stroke-width:0.065;stroke-miterlimit:4;stroke-dasharray:none;stroke-opacity:1;paint-order:normal" />
  <circle
     r="0.26458332"
     cy="14.058833"
     cx="12.658723"
     id="path5533-2-8"
     style="fill:none;fill-opacity:1;stroke:#000000;stroke-width:0.065;stroke-miterlimit:4;stroke-dasharray:none;stroke-opacity:1;paint-order:normal" />
  <circle
     r="0.26458332"
     cy="16.232742"
     cx="17.153435"
     id="path5533-2-08-7"
     style="fill:none;fill-opacity:1;stroke:#000000;stroke-width:0.065;stroke-miterlimit:4;stroke-dasharray:none;stroke-opacity:1;paint-order:normal" />
  <circle
     r="0.26458332"
     cy="16.272856"
     cx="17.973776"
     id="path5533-2-08-8"
     style="fill:none;fill-opacity:1;stroke:#000000;stroke-width:0.065;stroke-miterlimit:4;stroke-dasharray:none;stroke-opacity:1;paint-order:normal" />
  <circle
     r="0.26458332"
     cy="17.314913"
     cx="18.488043"
     id="path5533-2-08-3"
     style="fill:none;fill-opacity:1;stroke:#000000;stroke-width:0.065;stroke-miterlimit:4;stroke-dasharray:none;stroke-opacity:1;paint-order:normal" />
  <circle
     r="0.26458332"
     cy="17.851416"
     cx="16.39797"
     id="path5533-2-08-6"
     style="fill:none;fill-opacity:1;stroke:#000000;stroke-width:0.065;stroke-miterlimit:4;stroke-dasharray:none;stroke-opacity:1;paint-order:normal" />
  <circle
     r="0.26458332"
     cy="15.914728"
     cx="13.35893"
     id="path5533-2-08-67"
     style="fill:none;fill-opacity:1;stroke:#000000;stroke-width:0.065;stroke-miterlimit:4;stroke-dasharray:none;stroke-opacity:1;paint-order:normal" />
  <g
     id="layer2">
    <ellipse
       ry="0.28732097"
       rx="0.2707845"
       cy="5.6151738"
       cx="2.615967"
       id="path5072"
       style="fill:#95d4df;fill-opacity:1;stroke:#000000;stroke-width:0.1;stroke-miterlimit:4;stroke-dasharray:none;stroke-opacity:1;paint-order:normal" />
  </g>
</svg>
