<?xml version="1.0" encoding="UTF-8" standalone="no"?>
<svg
   xmlns:dc="http://purl.org/dc/elements/1.1/"
   xmlns:cc="http://creativecommons.org/ns#"
   xmlns:rdf="http://www.w3.org/1999/02/22-rdf-syntax-ns#"
   xmlns:svg="http://www.w3.org/2000/svg"
   xmlns="http://www.w3.org/2000/svg"
   id="svg8"
   version="1.1"
   viewBox="0 0 141.05276 57.444443"
   height="57.444443mm"
   width="141.05276mm">
  <defs
     id="defs2" />
  <metadata
     id="metadata5">
  </metadata>
  <style>
      @keyframes draw{
         0%{
         }

         100%{
            stroke-dashoffset: 0;
         }
      }
      .animate{
         animation: draw 24s linear infinite;
         animation-direction: alternate;
      }
  </style>
  <g
     transform="translate(0.22281173,0.46329536)"
     id="layer1">
    <path class="animate"
       id="path21"
       d="M 2.5835183,35.19868 C 13.017468,29.084819 30.39697,23.018648 45.747545,28.249673 c -0.539958,2.291052 0.366233,5.385521 1.403167,8.552625 -2.561333,5.768567 -13.658158,11.343146 -7.683999,17.305702 5.252033,3.782657 11.327249,0.452155 11.559407,-3.808591 l -1.00226,-0.467722 2.80633,-1.403165 c 3.460159,4.261021 6.776232,9.285699 11.960311,4.409948 1.597983,-2.141108 1.385599,-4.340472 -0.400905,-7.550365 -0.94652,-0.988325 -1.881258,-0.18634 -2.472242,0.06682 L 61.24918,44.219027 c 1.181379,-1.381362 2.311145,-2.736917 3.140417,-3.942225 0.690446,0.322512 1.380892,0.858716 2.071338,-0.534539 l 1.670435,-3.006782 0.668174,0.267269 0.734991,-0.734991 c 0.903713,0.572677 2.125529,0.986302 3.741773,1.202713 v -1.002261 l 2.338609,0.334087 1.937704,3.407686 h 0.868626 c 1.466214,2.737338 3.016483,5.026383 5.011304,4.944487 l 0.334086,-0.334087 2.80633,3.340869 -2.80633,3.140417 c -1.916329,-1.39379 -2.089563,-0.363849 -2.472242,-0.26727 -2.656017,-1.473283 -2.866189,0.756151 -3.541322,2.539061 0.470574,1.945138 1.494816,2.090855 2.672695,1.737252 0.824081,0.755174 1.648162,0.795774 2.472243,0.668174 0.824081,0.348192 1.648163,0.572302 2.472244,-0.133635 6.099408,1.083696 8.444314,-1.731513 9.955789,-5.412208 l 7.149456,2.672695 c 1.17151,2.955234 3.37429,0.545604 5.41221,-1.870887 l -0.73499,-2.071338 -1.5368,-1.336348 h -1.20271 c -2.30338,-3.320138 -1.01024,-4.229383 -2.93997,-6.481286 -1.56596,-0.514295 -2.50922,-0.509674 -3.006779,-0.133635 -1.150379,-0.740548 -1.699795,-2.482702 -2.338608,-4.07586 m -0.06682,0.267269 c 1.115394,-1.241945 2.238449,-2.460906 3.006782,-4.744034 l 1.269525,1.069078 c 0.92203,-1.640827 1.5483,-3.885947 1.93771,-6.414468 3.2799,1.936803 2.15394,11.781419 4.94449,13.898015 0.55262,0.594828 0.56882,-0.598433 0.60135,-1.737252 2.10452,2.397417 3.88419,4.23413 5.01131,4.944486 l 0.26727,-1.135895 c 2.80644,2.986205 5.58808,5.600312 8.21854,5.946747 l -0.40091,-2.204974 c 1.22057,0.378823 2.69391,2.021517 4.07586,3.207235 h 0.73499 c 0.59806,-0.116079 0.96107,1.355601 1.73725,2.605878 0.51196,-0.334401 1.01309,-0.679628 1.00227,-1.5368 0.52671,-0.06321 1.11001,-0.635655 1.46998,0.801808 0.47278,-0.05013 0.81835,-0.799923 0.93544,-2.80633 0.75425,0.14871 1.20094,1.835208 1.60362,3.741774 0.62603,-0.47796 1.22081,-1.112233 1.67043,-2.472243 l 0.26727,2.472243 c 3.61245,-1.574469 11.18819,-10.656701 -1.00226,-25.724692 l -0.46772,-1.069078 c -6.37314,-4.784579 -11.97779,-7.48325 -17.10525,-8.886712 l 0.60136,-0.868626 C 113.34951,14.116222 107.09857,12.730162 101.27279,11.211241 87.893869,1.9864603 82.215128,3.4952653 74.278569,1.8568071 73.871598,1.4113579 74.352554,0.9659087 74.813109,0.52045949 58.986918,-0.03867958 45.321807,7.5943124 30.713636,11.211241 27.537648,8.0654427 27.030245,9.9428634 26.838228,12.413953 c -7.529172,-0.185944 -6.490657,0.991153 -6.481286,2.004522 l -2.271791,1.937704 0.06682,1.135896 C 7.5246609,22.263045 3.9664671,28.213492 0.51218247,33.394611 0.45994853,34.67113 0.69868,35.683136 2.5835183,35.19868"
       style="fill:none;stroke:#ffd200;stroke-width:0.665;stroke-linecap:butt;stroke-linejoin:miter;stroke-opacity:1;stroke-miterlimit:4;stroke-dasharray:12; stroke-dashoffset: 400;" />
  </g>
</svg>
